<svg xmlns="http://www.w3.org/2000/svg" width="50" height="50" viewBox="0 0 250 250">
  <metadata><?xpacket begin="﻿" id="W5M0MpCehiHzreSzNTczkc9d"?>
<x:xmpmeta xmlns:x="adobe:ns:meta/" x:xmptk="Adobe XMP Core 5.6-c145 79.163499, 2018/08/13-16:40:22        ">
   <rdf:RDF xmlns:rdf="http://www.w3.org/1999/02/22-rdf-syntax-ns#">
      <rdf:Description rdf:about=""
            xmlns:xmp="http://ns.adobe.com/xap/1.0/">
         <xmp:CreatorTool>Adobe Photoshop CC 2019 (Windows)</xmp:CreatorTool>
      </rdf:Description>
   </rdf:RDF>
</x:xmpmeta>
                                                                                                    
                                                                                                    
                                                                                                    
                                                                                                    
                                                                                                    
                                                                                                    
                                                                                                    
                                                                                                    
                                                                                                    
                                                                                                    
                                                                                                    
                                                                                                    
                                                                                                    
                                                                                                    
                                                                                                    
                                                                                                    
                                                                                                    
                                                                                                    
                                                                                                    
                                                                                                    
                           
<?xpacket end="w"?></metadata>
<defs>
    <style>
      .cls-1 {
        fill: #436be2;
        fill-rule: evenodd;
      }
    </style>
  </defs>
  <path id="R" class="cls-1" d="M128.992,129.022V250l27.03-15V144.063l51.954-30v30l-51.954,29.9,51.954,31.1L235,190.049l-27.024-16.082L235,159V68.011Z"/>
  <path id="A" class="cls-1" d="M121,250L94.063,235V205.062L41.938,173.969v31.093L15,190.062V129.031l106,61.031V250Z"/>
  <path id="A_copy" data-name="A copy" class="cls-1" d="M15,68v69l27,15-0.062-37.938,52.125,30L94,182l27,16V129.031Z"/>
  <path id="J" class="cls-1" d="M125,0L229.082,60.094,125,121,73.967,90.063,98.809,75.1,125,90.063l52-29.969-52-30.1L120,33,94,18Z"/>
  <path id="_" data-name="&lt;" class="cls-1" d="M30,55L60,72V82L21,60Z"/>
  <path id="_copy" data-name="&lt; copy" class="cls-1" d="M30,65L60,48V38L21,60Z"/>
  <path id="_2" data-name="&gt;" class="cls-1" d="M107,55L77,72V82l39-22Z"/>
  <path id="_copy-2" data-name="&gt; copy" class="cls-1" d="M107,65L77,48V38l39,22Z"/>
  <path id="_3" data-name="/" class="cls-1" d="M61,87l7-54h8L69,87H61Z"/>
</svg>
